# xmcd
#
# Track frame offsets: 
#        150
#        10385
#        22248
#        29410
#        38848
#        48067
#        58957
#        68556
#        75913
#        85541
#        95564
#        105351
#        114276
#        122673
#        133179
#        144040
#        153354
#        161767
#        173391
#        185377
#
# Disc length: 2580 seconds
#
# Revision: 0
# Processed by: cddbd v1.5.2PL0 Copyright (c) Steve Scherf et al.
# Submitted via: ExactAudioCopy v0.99pb5
#
DISCID=ef0a1214
DTITLE=Various Artist - Rock-A-Billy CD10 - Blue Suede Shoes
DYEAR=1900
DGENRE=
TTITLE0=Carl Perkins  - Blue Suede Shoes
TTITLE1=Stonewall Jackson  - Smoke Along The Track
TTITLE2=Eddie Bond  - Here Comes The Train
TTITLE3=Jack Scott  - Geraldine
TTITLE4=Gene Davis  - Muleskinner Blues
TTITLE5=George 'Thumper' Jones  - Who Shot Sam
TTITLE6=Benny Joy  - Itty Bitty Everything
TTITLE7=Carl Phillips  - Salty Dog Blues
TTITLE8=Dwight 'Whitey' Pullen  - Sunglasses After Dark
TTITLE9=Wanda Jackson  - Mean Mean Man
TTITLE10=Johnny O'Keefe  - Real Wild Child
TTITLE11=Joe Bennett and Te Sparkletones  - Black Slacks
TTITLE12=Terry Daley  - You Don't Bug Me No More
TTITLE13=Al Casey  - Got The Teenage Blues
TTITLE14=Jimmy Patton  - Oakie's In The Pokey
TTITLE15=Gene Summers  - Gotta Lotta That
TTITLE16=Jimmy Dee  - Rock Tic Toc
TTITLE17=Johnny Burnette Rock and Roll Trio  - Rock Billy Boogie
TTITLE18=Jody Reynolds  - Jeannie Mae
TTITLE19=Jerry Byrne  - Lights Out
EXTD=
EXTT0=
EXTT1=
EXTT2=
EXTT3=
EXTT4=
EXTT5=
EXTT6=
EXTT7=
EXTT8=
EXTT9=
EXTT10=
EXTT11=
EXTT12=
EXTT13=
EXTT14=
EXTT15=
EXTT16=
EXTT17=
EXTT18=
EXTT19=
PLAYORDER=
